<?xml version="1.0" encoding="UTF-8"?>
<svg id="Laag_1" xmlns="http://www.w3.org/2000/svg" version="1.1" viewBox="0 0 136.1 136.1">
  <!-- Generator: Adobe Illustrator 29.0.0, SVG Export Plug-In . SVG Version: 2.1.0 Build 186)  -->
  <defs>
    <style>
      .st0 {
        fill: #34776c;
      }

      .st1 {
        fill: #fff;
      }
    </style>
  </defs>
  <path class="st0" d="M125.9,62.1c0-32-25.9-57.9-57.9-57.9S10.2,30.1,10.2,62.1s17.1,47.9,40.6,55.2c-2.4,3.2-7,8.6-14,13.6,0,0,44.8-2.7,68.5-24.5h0c12.6-10.7,20.6-26.6,20.6-44.3h0Z"/>
  <g>
    <path class="st1" d="M49.6,45.5h-.1l-8.4,4.2-1.5-6.6,11.2-5.5h7.3v46h-8.4v-38.2h0Z"/>
    <path class="st1" d="M99.3,60.4c0,14.8-5.8,24.1-16.8,24.1s-16.2-9.7-16.3-23.7c0-14.3,6.1-23.9,16.8-23.9s16.3,9.9,16.3,23.5h0ZM74.9,60.8c0,11.2,3.1,17,7.9,17s7.8-6.2,7.8-17.3-2.5-17-7.8-17-7.9,5.7-7.9,17.2Z"/>
  </g>
</svg>