<?xml version="1.0" encoding="UTF-8"?>
<svg id="Laag_1" xmlns="http://www.w3.org/2000/svg" version="1.1" viewBox="0 0 136.1 136.1">
  <!-- Generator: Adobe Illustrator 29.0.0, SVG Export Plug-In . SVG Version: 2.1.0 Build 186)  -->
  <defs>
    <style>
      .st0 {
        fill: #34776c;
      }

      .st1 {
        fill: #fff;
      }
    </style>
  </defs>
  <path class="st0" d="M125.9,62.1c0-32-25.9-57.9-57.9-57.9S10.2,30.1,10.2,62.1s17.1,47.9,40.6,55.2c-2.4,3.2-7,8.6-14,13.6,0,0,44.8-2.7,68.5-24.5h0c12.6-10.7,20.6-26.6,20.6-44.3h0Z"/>
  <path class="st1" d="M51.3,70.8c0-5.7,3.3-9.6,8.6-11.9v-.2c-4.8-2.3-7-6.2-7-10.2,0-7.6,6.6-12.6,15.4-12.6s14.4,5.9,14.4,11.6-2.1,8-7.1,10.4v.2c5,2,8.8,5.9,8.8,11.6,0,8.2-6.9,13.7-16.8,13.7s-16.3-6.2-16.3-12.6h0ZM75.6,70.5c0-4.7-3.4-7.2-8.6-8.7-4.3,1.2-6.8,4.2-6.8,8-.1,3.9,2.9,7.5,7.7,7.5s7.6-2.9,7.6-6.9h0ZM61.2,48.1c0,3.8,3.1,6,7.5,7.3,3.1-1,5.7-3.5,5.7-7s-1.9-6.5-6.6-6.5-6.6,2.9-6.6,6.2Z"/>
</svg>