<?xml version="1.0" encoding="UTF-8"?>
<svg id="Laag_1" xmlns="http://www.w3.org/2000/svg" version="1.1" viewBox="0 0 136.1 136.1">
  <!-- Generator: Adobe Illustrator 29.0.0, SVG Export Plug-In . SVG Version: 2.1.0 Build 186)  -->
  <defs>
    <style>
      .st0 {
        fill: #34776c;
      }

      .st1 {
        fill: #fff;
      }
    </style>
  </defs>
  <path class="st0" d="M125.9,62.1c0-32-25.9-57.9-57.9-57.9S10.2,30.1,10.2,62.1s17.1,47.9,40.6,55.2c-2.4,3.2-7,8.6-14,13.6,0,0,44.8-2.7,68.5-24.5h0c12.6-10.7,20.6-26.6,20.6-44.3h0Z"/>
  <path class="st1" d="M55.4,76.5c1.4.1,2.7,0,4.8-.1,3.4-.3,6.8-1.5,9.3-3.6,3-2.4,5.1-5.9,5.9-10.2h-.2c-2.3,2.5-5.6,4-10,4-8,0-14-5.8-14-14.2s6.8-16.5,16.6-16.5,16.4,8.4,16.4,19.7-3.2,16.8-8,21.4c-4,3.7-9.5,5.9-15.7,6.3-2,.2-3.9.2-5.2.2v-6.9h0ZM60,51.8c0,4.8,2.8,8.5,7.6,8.5s6.1-1.7,7.4-3.8c.3-.6.5-1.3.5-2.5,0-6.2-2.3-11.6-7.9-11.6s-7.6,3.9-7.5,9.5Z"/>
</svg>