<svg aria-hidden="false" data-icontype="ExternalLink" height="1rem" viewBox="0 0 24 24" width="1rem" xmlns="http://www.w3.org/2000/svg"><title>Openen in een nieuw tabblad</title><path fill-rule="evenodd" clip-rule="evenodd" d="M14.25 4C14.25 3.58579 14.5858 3.25 15 3.25H20C20.4142 3.25 20.75 3.58579 20.75 4V9C20.75 9.41421 20.4142 9.75 20 9.75C19.5858 9.75 19.25 9.41421 19.25 9V5.81066L13.0303 12.0303C12.7374 12.3232 12.2626 12.3232 11.9697 12.0303C11.6768 11.7374 11.6768 11.2626 11.9697 10.9697L18.1893 4.75H15C14.5858 4.75 14.25 4.41421 14.25 4ZM3.25 7C3.25 6.0335 4.0335 5.25 5 5.25H10.5C10.9142 5.25 11.25 5.58579 11.25 6C11.25 6.41421 10.9142 6.75 10.5 6.75H5C4.86193 6.75 4.75 6.86193 4.75 7V19C4.75 19.1381 4.86193 19.25 5 19.25H17C17.1381 19.25 17.25 19.1381 17.25 19V13.5C17.25 13.0858 17.5858 12.75 18 12.75C18.4142 12.75 18.75 13.0858 18.75 13.5V19C18.75 19.9665 17.9665 20.75 17 20.75H5C4.0335 20.75 3.25 19.9665 3.25 19V7Z"></path></svg>