<?xml version="1.0" encoding="UTF-8"?>
<svg id="PRODUCT_ICONS" data-name="PRODUCT ICONS" xmlns="http://www.w3.org/2000/svg" viewBox="0 0 72 72">
  <defs>
    <style>
      .cls-1 {
        fill: #004c4c;
      }

      .cls-2 {
        fill: #66c7c0;
      }

      .cls-3 {
        fill: #33b5ab;
      }

      .cls-4 {
        fill: #00716b;
      }

      .cls-5 {
        fill: #f3c000;
      }

      .cls-6 {
        fill: #fff;
      }
    </style>
  </defs>
  <path class="cls-2" d="M56.02,63H16.02c-2.21,0-4-1.79-4-4v-28l21.84-22.75c1.18-1.23,3.15-1.23,4.33,0l21.84,22.75v28c0,2.21-1.79,4-4,4Z"/>
  <path class="cls-3" d="M38.34,12.41c-.56-.57-1.33-.89-2.12-.89h0c-.8,0-1.56.32-2.13.88l-22.06,22.17v8.51l23.47-23.58c.39-.39,1.03-.39,1.42,0l23.11,23.42v-8.54l-21.68-21.97Z"/>
  <path class="cls-4" d="M8.99,39.67c-.77,0-1.53-.29-2.12-.87-1.17-1.17-1.18-3.07-.01-4.24L34.09,7.21c.56-.57,1.33-.88,2.13-.88h0c.8,0,1.56.32,2.12.89l26.74,27.09c1.02,1.03,1.26,2.67.43,3.86-1.11,1.61-3.33,1.75-4.63.43l-23.98-24.29c-.39-.4-1.03-.4-1.42,0l-24.38,24.49c-.59.59-1.36.88-2.13.88Z"/>
  <rect class="cls-3" x="22" y="33" width="6" height="27" rx="3" ry="3"/>
  <circle class="cls-5" cx="25" cy="40.73" r="3"/>
  <rect class="cls-3" x="33.02" y="33" width="6" height="27" rx="3" ry="3"/>
  <circle class="cls-6" cx="36" cy="53" r="3"/>
  <rect class="cls-3" x="44.02" y="33" width="6" height="27" rx="3" ry="3"/>
  <circle class="cls-1" cx="47" cy="46" r="3"/>
</svg>