<?xml version="1.0" encoding="UTF-8"?>
<svg id="PRODUCT_ICONS" data-name="PRODUCT ICONS" xmlns="http://www.w3.org/2000/svg" viewBox="0 0 72 72">
  <defs>
    <style>
      .cls-1 {
        fill: #004c4c;
      }

      .cls-2 {
        fill: #66c7c0;
      }

      .cls-3 {
        fill: #00716b;
      }

      .cls-4 {
        fill: #f3c000;
      }
    </style>
  </defs>
  <g>
    <path class="cls-2" d="M13.94,18h44c1.1,0,2,.9,2,2v32H11.94V20c0-1.1.9-2,2-2Z"/>
    <path class="cls-3" d="M57.94,18c1.1,0,2,.9,2,2v32H11.94V20c0-1.1.9-2,2-2h44M57.94,15H13.94c-2.76,0-5,2.24-5,5v35h54V20c0-2.76-2.24-5-5-5h0Z"/>
  </g>
  <rect class="cls-1" x="35.25" y="15.73" width="1.5" height="1.5" rx=".75" ry=".75"/>
  <g>
    <path class="cls-3" d="M5.94,52h60.29v1c0,2.21-1.79,4-4,4H9.95c-2.21,0-4-1.79-4-4v-1h0Z"/>
    <path class="cls-4" d="M30.94,52h10c0,1.1-.9,2-2,2h-6c-1.1,0-2-.9-2-2h0Z"/>
  </g>
  <circle class="cls-1" cx="24.7" cy="35.66" r="9.3"/>
  <path class="cls-4" d="M27.27,38.68c-.08,0-.17.02-.25.06-.48.23-1.01.36-1.58.36-1.35,0-2.52-.73-3.15-1.82h2.94c.26,0,.48-.16.57-.4.14-.4-.15-.81-.57-.81h-3.38c-.03-.2-.05-.4-.05-.61s.02-.41.05-.61h4.26c.26,0,.48-.16.57-.4.14-.4-.15-.81-.57-.81h-3.82c.63-1.09,1.81-1.82,3.15-1.82.5,0,.97.1,1.4.28.08.03.17.05.25.05.25,0,.48-.14.57-.39.11-.3-.04-.64-.34-.77-.58-.25-1.22-.38-1.89-.38-2.04,0-3.78,1.26-4.5,3.04h-.96c-.34,0-.61.27-.61.61s.27.61.61.61h.65c-.02.2-.04.4-.04.61s.02.41.04.61h-.65c-.34,0-.61.27-.61.61s.27.61.61.61h.96c.72,1.78,2.46,3.04,4.5,3.04.76,0,1.47-.17,2.1-.48.2-.1.32-.31.32-.54,0-.35-.29-.61-.6-.61h0Z"/>
  <rect class="cls-3" x="45" y="19" width="3" height="19" rx="1.5" ry="1.5" transform="translate(18 75) rotate(-90)"/>
  <rect class="cls-3" x="45" y="26" width="3" height="19" rx="1.5" ry="1.5" transform="translate(11 82) rotate(-90)"/>
  <rect class="cls-3" x="41" y="37" width="3" height="11" rx="1.5" ry="1.5" transform="translate(0 85) rotate(-90)"/>
</svg>