<?xml version="1.0" encoding="UTF-8"?>
<svg id="PRODUCT_ICONS" data-name="PRODUCT ICONS" xmlns="http://www.w3.org/2000/svg" viewBox="0 0 72 72">
  <defs>
    <style>
      .cls-1 {
        fill: #004c4c;
      }

      .cls-2 {
        fill: #33b5ab;
      }

      .cls-3 {
        fill: #00716b;
      }
    </style>
  </defs>
  <path class="cls-2" d="M9,17h54v32c0,2.21-1.79,4-4,4H13c-2.21,0-4-1.79-4-4V17h0Z"/>
  <path class="cls-1" d="M21.49,28.41c0-3.58,2.62-6.14,6.21-6.14s6.21,2.56,6.21,6.14-2.62,6.14-6.21,6.14-6.21-2.56-6.21-6.14ZM30.51,28.41c0-1.73-1.09-3.01-2.82-3.01s-2.82,1.28-2.82,3.01,1.09,3.01,2.82,3.01,2.82-1.28,2.82-3.01ZM27.89,45.17l12.8-22.53h3.71l-12.8,22.53h-3.71ZM38.38,39.42c0-3.58,2.62-6.14,6.21-6.14s6.21,2.56,6.21,6.14-2.62,6.14-6.21,6.14-6.21-2.56-6.21-6.14ZM47.41,39.42c0-1.73-1.09-3.01-2.82-3.01s-2.82,1.28-2.82,3.01,1.09,3.01,2.82,3.01,2.82-1.28,2.82-3.01Z"/>
  <rect class="cls-3" x="34" y="7" width="4" height="5"/>
  <rect class="cls-3" x="34" y="53" width="4" height="13"/>
  <path class="cls-3" d="M13,12h46c2.21,0,4,1.79,4,4v1H9v-1c0-2.21,1.79-4,4-4Z"/>
</svg>