<?xml version="1.0" encoding="UTF-8"?>
<svg id="Laag_1" xmlns="http://www.w3.org/2000/svg" xmlns:xlink="http://www.w3.org/1999/xlink" version="1.1" viewBox="0 0 550 706">
  <!-- Generator: Adobe Illustrator 29.0.0, SVG Export Plug-In . SVG Version: 2.1.0 Build 186)  -->
  <defs>
    <style>
      .st0 {
        fill: none;
      }

      .st1 {
        fill: #004c4c;
      }

      .st2 {
        fill: #009a8f;
      }

      .st3 {
        fill: #009287;
      }

      .st4 {
        clip-path: url(#clippath-1);
      }

      .st5 {
        fill: #007971;
      }

      .st6 {
        fill: #f5cd33;
      }

      .st7 {
        fill: #00a296;
      }

      .st8 {
        fill: #ccecea;
      }

      .st9 {
        fill: #005351;
      }

      .st10 {
        fill: #005a55;
      }

      .st11 {
        fill: #f8d966;
      }

      .st12 {
        fill: #00615a;
      }

      .st13 {
        fill: #b3afd9;
      }

      .st14 {
        fill: #006962;
      }

      .st15 {
        fill: #e7b600;
      }

      .st16 {
        fill: #8b86bf;
      }

      .st17 {
        fill: #9d98ce;
      }

      .st18 {
        clip-path: url(#clippath);
      }
    </style>
    <clipPath id="clippath">
      <rect class="st0" x="5.4" y="38.9" width="521" height="521"/>
    </clipPath>
    <clipPath id="clippath-1">
      <rect class="st0" x="5.4" y="38.9" width="521" height="521"/>
    </clipPath>
  </defs>
  <g class="st18">
    <g class="st4">
      <g>
        <path class="st8" d="M526.4,299.4c0,143.9-116.6,260.5-260.5,260.5S5.4,443.3,5.4,299.4s.4-17.2,1.3-25.5c.2-2.3.4-4.6.8-6.8.2-3.2.7-6.3,1.2-9.3,1-5.9,2.1-11.8,3.5-17.5,1.3-5.7,2.8-11.3,4.4-16.8,2.4-7.9,5.2-15.6,8.3-23C63.8,105.6,157.1,38.9,265.9,38.9s106.1,17.1,148.2,46.3c4.6,3.1,9,6.4,13.3,10,60.3,47.6,98.9,121.4,98.9,204.2Z"/>
        <path class="st12" d="M474.8,67.2L93.1,292.6l38.2,191.7,46.1-132L474.8,67.2Z"/>
        <path class="st7" d="M474.8,67.2l-47.4,28L93.1,292.6l-85.6-25.5c.2-3.2.7-6.3,1.2-9.3,1-5.9,2.1-11.8,3.5-17.5,1.3-5.7,2.8-11.3,4.4-16.8,2.4-7.9,5.2-15.6,8.3-23l271.3-80.4h.1l117.8-34.9,60.7-18Z"/>
        <path class="st3" d="M474.8,67.2l-85.4,436.5-215.9-154L474.8,67.2Z"/>
        <path class="st17" d="M221.9,384.1l-44.5-31.8-46.1,132,90.6-100.2Z"/>
        <path class="st16" d="M152.2,461.4s24.6-69.6,45.9-94.4l23.9,17.1-69.8,77.3Z"/>
        <path class="st13" d="M389.4,503.6l-1.3,6.8-211.2-151-45.6,124.9-39.4-184.5-85.3-26c.2-2.3.4-4.6.8-6.8l85.6,25.5,4.2,1.3,34.9,174.2,41.3-118.4,215.9,154Z"/>
        <path class="st2" d="M77.3,287.9l20,5.9,6.3-3.7,29.5-17.7-17.7-4.7c-16.3,8.9-29.5,15.9-37.9,20.1h-.1Z"/>
        <path class="st2" d="M447.6,83.5l-13.9,4.6c19.4-11.1,31.4-18,31.4-18l9.9-2.9-27.2,16.3h-.1Z"/>
        <path class="st2" d="M224.2,217.7l-91.2,54.8,91.2-54.8Z"/>
        <path class="st7" d="M267.1,261.9c1.4,3.9,3.1,7.7,5.2,11.5-.4.4-1,1-1.4,1.4h-.1c-7.9,8.2-15.7,16-23.1,23.5l-11.5-7.4,30.9-29Z"/>
        <path class="st7" d="M293.5,242.5l6.6,2.9c-1.7,1.8-3.4,3.5-5.2,5.2-.7-2.8-1.2-5.4-1.4-8.1Z"/>
        <path class="st7" d="M323.2,222.4c-3.2,3.1-6.2,6.3-9.4,9.4l-10.1-4.2,9.9-9.2,9.6,4Z"/>
        <path class="st7" d="M349.1,196.6c-4.3,4.4-8.8,8.8-13.2,13.2l-9.2-3.8,8.9-8.3c4.3-1,8.9-1.3,13.6-1.2Z"/>
        <path class="st7" d="M474.8,67.2l-1.5,7.5s-61.5,60.2-106.7,104.6c-3.4-.5-6.7-1.1-10.1-1.3l118.2-110.8Z"/>
        <path class="st7" d="M173.5,349.6l15.4,10.9c6-7,14.9-16.5,25.6-28l-13.3-8.9-27.6,26Z"/>
        <path class="st5" d="M469,96.4l-79.6,407.2-135.6-96.7s13-8.3,33.3-26l77.5,51.8,13.9-50.5-55.7-35.7c5.8-6.3,12-13,18.1-20.2,16.3,5.3,33.4,7.3,49.6,5.8l-6.5-30.8c-7.3,1.1-14.8,1-22.5-.1,16.8-21.8,34-47.1,50.5-76.2.2-.3.3-.5.5-.8l20.1-11.8c-3-2.8-6-5.5-9.3-8.1,2.9-5.3,5.6-10.8,8.4-16.4,13.6-27.6,26.3-58.2,37.2-91.5Z"/>
        <path class="st14" d="M247.7,298.3c-12.3,12.5-23.5,24.2-33.2,34.3l72.6,48.4c10.3-9,22.5-20.4,35.7-34.4l-75.1-48.2h0Z"/>
        <path class="st5" d="M236.1,290.9l-35,32.7,13.3,8.9c9.6-10.2,20.9-21.7,33.2-34.3l-11.5-7.4h0Z"/>
        <path class="st10" d="M378.5,382.2l-55.7-35.8c-13.2,14-25.4,25.4-35.7,34.4l77.5,51.7,13.9-50.4h0Z"/>
        <path class="st3" d="M218.2,210.6c-38.8,21.7-75.2,42.1-102.9,57.2l-74.4-19.8-28.8-7.7c1.3-5.7,2.8-11.3,4.4-16.8l108.9-35.4,39.2,9.5,53.5,13Z"/>
        <path class="st3" d="M433.6,88c-36.7,21-102.3,58.6-168.3,95.9l-54.7-10.2-26-4.9,75.3-24.5,173.6-56.4Z"/>
        <path class="st5" d="M447.6,83.5l-170.8,102.7-11.4-2.2c66-37.3,131.7-74.9,168.3-95.9l13.9-4.6Z"/>
        <path class="st5" d="M132.9,272.5l-17.7-4.7c27.8-15.1,64.1-35.4,102.9-57.2l12.7,3.1-98,58.8h.1Z"/>
        <path class="st13" d="M276.8,186l-25.3,15.3,25.3-15.3Z"/>
        <path class="st7" d="M210.7,173.7l54.7,10.2c-15.9,9-31.7,17.9-47.1,26.7l-53.5-13-39.2-9.5-108.9,35.3c2.4-7.8,5.2-15.5,8.3-22.9l271.3-80.4c-12.1,8.6-24.2,16.6-36.2,24.4l-75.2,24.5,26,4.9Z"/>
        <path class="st2" d="M265.4,183.9c-15.9,9-31.7,17.9-47.1,26.7l12.7,3.1,20.6-12.4,25.3-15.3-11.4-2.2h0Z"/>
        <path class="st9" d="M147.2,322.4c-9.4,17.9-15,145.7-15,145.7l41.3-118.5,111.4-104.5-3.6-25.8c-68.9,45.6-128.4,92.2-134.1,103.1h0Z"/>
        <path class="st10" d="M276.8,186.1l4.6,33.2c29.3-19.4,60.4-38.7,89.7-55l-86.1,80.7,162.3-152.1.3-9.4-170.8,102.7Z"/>
        <path class="st1" d="M281.4,219.3l3.6,25.8,86.1-80.7c-29.3,16.2-60.4,35.5-89.7,55h0Z"/>
        <path class="st11" d="M335.8,209.9c-4.1,4.1-8.4,8.3-12.6,12.5l-9.6-4,13-12.3,9.2,3.8Z"/>
        <path class="st6" d="M395.3,234.2l-18.5,10.8-53.6-22.7c4.2-4.2,8.5-8.4,12.6-12.5l59.5,24.4Z"/>
        <path class="st11" d="M300.1,245.4l-6.6-2.9c.2,2.6.6,5.3,1.4,8.1-7.6,7.7-15.3,15.5-22.7,22.9-2.1-3.8-3.8-7.6-5.2-11.5l36.7-34.3,10.1,4.2c-4.6,4.6-9.1,9.1-13.7,13.6Z"/>
        <path class="st6" d="M363,253.1l-19.9,11.4-43-19.2c4.6-4.4,9.1-9,13.7-13.6l49.3,21.3Z"/>
        <path class="st6" d="M361.6,301.2c-5.5,7.1-10.9,13.8-16.2,20.1h-.1c-1.5,1.7-2.9,3.4-4.3,5-6.6-2-13-4.6-19.2-7.6-23.3-11.4-40-27.8-49.5-45.2,7.4-7.4,15-15.1,22.7-22.9,4.4,16.4,18.4,32.6,39.7,42.7,8.6,4.1,17.7,6.8,26.9,7.9Z"/>
        <path class="st15" d="M390.5,332.1c-16.2,1.5-33.3-.5-49.6-5.8,1.5-1.6,2.9-3.3,4.3-5h.1c5.3-6.4,10.7-13,16.2-20.1,7.6,1.1,15.1,1.2,22.5.1l6.5,30.8Z"/>
        <path class="st15" d="M432.7,212.4l-20.1,11.8c3.6-6.5,7.2-13,10.8-19.8,3.3,2.5,6.4,5.3,9.3,8.1Z"/>
        <path class="st6" d="M423.4,204.4c-3.6,6.8-7.2,13.3-10.8,19.8-8.4-9-19.5-16.5-31.9-21.3-10.5-4.1-21.4-6.1-31.7-6.3,1.1-1,2-1.9,3.1-3,4.6-4.6,9.4-9.3,14.5-14.4,7.6,1.5,15.4,3.5,22.9,6.4,12.3,4.7,23.8,11,33.9,18.8Z"/>
        <path class="st11" d="M366.6,179.3c-5.1,5.1-10,9.9-14.5,14.4-1.1,1.1-2,2-3.1,3-4.7-.1-9.2.2-13.6,1.2l21.1-19.8c3.4.2,6.7.7,10.1,1.3Z"/>
      </g>
    </g>
  </g>
</svg>