<?xml version="1.0" encoding="utf-8"?>
<!-- Generator: Adobe Illustrator 26.2.0, SVG Export Plug-In . SVG Version: 6.00 Build 0)  -->
<svg version="1.1" id="Laag_1" xmlns="http://www.w3.org/2000/svg" xmlns:xlink="http://www.w3.org/1999/xlink" x="0px" y="0px"
	 viewBox="0 0 550 706" style="enable-background:new 0 0 550 706;" xml:space="preserve">
<style type="text/css">
	.st0{fill:#CCECEA;}
	.st1{fill:#AE675B;}
	.st2{fill:#94574C;}
	.st3{fill:#A15F54;}
	.st4{fill:#007169;}
	.st5{fill:#E6F6F5;}
	.st6{fill:#008A80;}
	.st7{fill:#009287;}
	.st8{fill:#008278;}
	.st9{fill:#874F45;}
	.st10{fill:#F5CD33;}
	.st11{fill:#F3C000;}
	.st12{fill:#BEBBDF;}
	.st13{fill:#025F5E;}
</style>
<g>
	<path class="st0" d="M525,298.8c0,143.4-116.3,259.7-259.7,259.7c-24.8,0-48.7-3.5-71.4-9.9c-4.5-1.3-8.9-2.7-13.3-4.2
		c-13.2-4.6-25.8-10.1-37.9-16.6c-14.4-7.7-28-16.8-40.5-27c-2.2-1.7-4.3-3.5-6.3-5.3c-3.9-3.4-7.8-7-11.6-10.6
		c-16.2-15.7-30.3-33.5-41.9-53c-2-3.3-3.9-6.6-5.7-10c-19.8-36.6-31-78.6-31-123.2C5.6,169,100.8,61.4,225.3,42.2
		c3.7-0.6,7.5-1.1,11.3-1.5c1.9-0.2,3.9-0.4,5.8-0.6h0c6.1-0.6,12.3-0.9,18.5-1c1.4,0,2.8,0,4.2,0h0.2l13.3,0.3h0.2
		C328.6,42,374.6,58.6,413,85.2c2.9,2,5.7,3.9,8.4,6c0.7,0.5,1.3,1,1.9,1.5c2.9,2.2,5.6,4.4,8.3,6.7C488.7,147,525,218.7,525,298.8
		L525,298.8z"/>
	<g>
		<path class="st1" d="M469.9,251.9c-0.8,13.8-16.2,18.6-38.7,19.9H431c-1.6,0.1-3.2,0.1-4.8,0.2c-15.3,0.6-33.3-0.1-52.1-0.6
			c0,0,14.2,2.6,30.4,7.7c0.7,0.2,1.3,0.4,2,0.6c7.9,2.6,16.1,5.7,23.4,9.4c0.2,0.1,0.4,0.2,0.6,0.4c-0.5-0.3-0.8-0.4-0.8-0.4
			s-2.1,1.6-4.9,4.5c-5.3,5.4-13.3,15.2-15.9,28.1c-0.4,1.8-0.6,3.6-0.8,5.5c-1.6,22,6,31.9,6,31.9s-5.9,8.2-6.6,20.4
			c-0.8,14.5,3.6,16.8,3.6,16.8s-4.6,3.5-5.8,17.1c-1.5,16.4,4,17,5.6,17.2c-10.7-0.3-33.1,14-50.4,14c-2.5,0-7.2,2.4-13.5,6.3
			c-24.5-31.2-74.9-83.9-151.2-112.4c-15.7-5.9-32.6-10.8-50.5-14.2l34.6-47.7c0,0,7.2-7.1,20.3-16.4c11.2-8,26.7-17.5,45.7-25.7
			c14.2-6.1,30.3-11.5,48-14.8c8.2-1.6,16.7-2.7,25.5-3.3c43-2.7,82.1-1.5,109.6,4.6c1,0.2,2,0.4,2.9,0.7c1.1,0.3,2.1,0.5,3.2,0.8
			C457.5,228.2,470.7,237.8,469.9,251.9L469.9,251.9z"/>
		<path class="st2" d="M433.5,291l-5.7,4.7c0,0-0.8-0.9-3.1-2.2c-2.9-1.5-8.2-3.6-17.4-5.1c-9.6-1.5-5.8-5.6-0.9-8.7
			c7.9,2.6,16.2,5.7,23.4,9.4c0.2,0.1,0.4,0.2,0.6,0.4c0,0,0.1,0,0.2,0.1C431.5,289.9,432.4,290.3,433.5,291L433.5,291z"/>
		<path class="st2" d="M469.9,251.9c-0.8,13.9-16.2,18.6-38.6,19.9c39.5-3.1,32.6-41.2,3.9-49.5
			C457.5,228.2,470.7,237.8,469.9,251.9L469.9,251.9z"/>
		<g>
			<path class="st2" d="M344.5,450.7L344.5,450.7c-0.4,0.2-0.8,0.4-1.1,0.7h0c-0.9,0.6-1.8,1.1-2.7,1.7c-0.6,0.4-1.2,0.8-1.7,1.1h0
				c-3.7,2.5-7.5,5.1-11.2,7.8h0c-0.8,0.6-1.6,1.1-2.4,1.7c-8.6,6.1-17.5,12.7-27.8,19.1c-14.5,9-31.8,17.9-54.5,25.1
				c-1.5,0.5-3.1,1-4.6,1.6h0c-17.8,6.3-33.9,16.2-49,27.8c-2.9,2.3-5.8,4.6-8.6,7c-13.2-4.6-25.8-10.1-37.9-16.6
				c-14.4-7.7-28-16.8-40.5-27c-2.2-1.7-4.3-3.5-6.3-5.3c-3.9-3.4-7.8-7-11.6-10.6l-22.9-48.6l21.8-30l59.6-82.2
				c20.8,4,40.1,9.9,58,17.1c1,0.4,1.9,0.8,2.9,1.2c0.7,0.2,1.3,0.5,1.9,0.8c0.1,0,0.1,0,0.2,0.1c2.8,1.1,5.5,2.4,8.2,3.6h0
				c2.9,1.3,5.7,2.6,8.4,4c26.5,13.1,49.3,28.8,68.3,44.6c0.8,0.6,1.5,1.3,2.3,1.9c0.7,0.6,1.5,1.2,2.2,1.9
				c7.3,6.2,14,12.5,20.1,18.6c2.4,2.4,4.7,4.7,6.9,7c0.6,0.6,1.2,1.3,1.7,1.9c0.6,0.6,1.2,1.3,1.7,1.9
				C333,436.6,339.4,444.1,344.5,450.7L344.5,450.7z"/>
			<path class="st1" d="M344.5,450.7c-11.8,7.3-22.7,15.8-35.3,24.4c0,0,0,0,0,0c-3.8,2.7-7.7,5.3-11.8,7.8
				c-131.6,33.9-137.3-100.5-137.3-100.5l32.1-32.4l8.5-8.9C272.9,370.3,320.7,420.6,344.5,450.7L344.5,450.7z"/>
		</g>
		<path class="st3" d="M344.5,450.7c-11.8,7.3-22.7,15.8-35.3,24.4c0,0,0,0,0,0c-8.9-9.8-75.6,1.7-102.1-24.4
			c-21.4-21.1-8.1-65-20.5-82c-12.6-17.3,2.3-5.1,5.6-18.6l8.5-8.9C272.9,370.3,320.7,420.5,344.5,450.7L344.5,450.7z"/>
		<path class="st3" d="M426.3,272c-15.3,0.6-33.3-0.1-52.1-0.6c0,0,14.2,2.6,30.4,7.7l-7.2,23.8l11.5,18.8c-0.4,1.8-0.6,3.6-0.8,5.5
			c-1.6,22,6,31.9,6,31.9s-5.9,8.2-6.6,20.4c-0.8,14.5,3.6,16.8,3.6,16.8s-4.6,3.5-5.8,17.1c-1.5,16.4,4,17,5.6,17.2
			c-10.7-0.3-33.1,14-50.4,14c-2.5,0-7.2,2.4-13.5,6.3c-24.5-31.2-74.9-83.9-151.2-112.4c1.6-4.3-11.4-8.1-8.9-13.3
			c15.3-32,13.3-64.9,13.3-64.9c11.2-8,26.7-17.5,45.7-25.7c14.1-4.6,30.7-9.8,48-14.8c8.2-1.6,16.7-2.7,25.5-3.3
			c43-2.7,82.1-1.5,109.6,4.6C437.2,243.2,432.7,261.5,426.3,272L426.3,272z"/>
		<g>
			<path class="st4" d="M424.7,42.6c-4.6-5.5-15.2-10.5-24.2-12.9c-0.1,0-0.2,0-0.4-0.1c-1.5-0.4-2.9-0.7-4.2-0.9
				c-1.4-0.2-2.6-0.3-3.8-0.4L349.3,28l-52.1-0.4l-33.4-0.3h-1.5c-10.2,0.2-19.5,5.4-25.7,13.4c-4.9,6.2-8,14.1-8.5,22.7l-2.2,27.5
				L213,251.6l-7.3,90.7l-0.1,1l-6.4,80.1l0,0.3c0,0.1,0,0.1,0,0.2c3.4,12.9,7.9,21.1,13.3,26.4c7.2,7,16.3,8.8,26.8,9.3l85.7,4.3
				l51.3,2.6c0.8,0,1.5,0,2.2,0c17.7-0.4,32.4-15.5,33.9-34.5c0,0,0,0,0,0c0-0.2,0.1-0.5,0.1-0.8l7.7-135.3L421,285l0.7-12.8l3-52.2
				l6.9-120.5l1.7-29.6C433.9,59.7,430.8,50,424.7,42.6L424.7,42.6z M422.6,69.4l-1.2,21.8l-4.2,74.4l-3,52.6l-3.1,54l-0.5,8.9
				l-1.9,33.4l-1.8,31.6l-3.7,66.2l-0.3,4.6l-0.8,13.8c-0.1,1.3-0.2,2.5-0.5,3.7c-2.3,11.7-11.8,20.4-22.9,20.6c-0.5,0-1.1,0-1.6,0
				l-36.6-1.8h0l-100.5-5c-3.1-0.2-6-0.9-8.6-2.3c0,0-0.1,0-0.1-0.1c-8.2-4.2-13.7-13.5-13.1-24l4.1-71l0-1.2l6.1-107.1l10.2-178.8
				c0.7-13.2,10.4-23.8,22.2-24.7c0.4,0,0.9-0.1,1.3-0.1h1.1l1.7,0h0.2l13.3,0.3h0.2l121.3,3c0.2,0,0.4,0,0.5,0h0.2
				C413.7,43.3,423.4,55.2,422.6,69.4L422.6,69.4z M407.6,367.5l0.9-15.6c-0.6-1.6-1.1-3.6-1.6-5.9l-3.7,66.2
				c0.5-5.1,1.5-8.7,2.5-11.2l0.5-9.4c-0.8-2.5-1.3-6.4-1-12.3C405.5,374.8,406.5,370.7,407.6,367.5L407.6,367.5z"/>
			<path class="st5" d="M391.5,40.1c13.2,0.4,23.3,12.5,22.5,27l-20.4,361.2c-0.8,14.1-12,25-24.9,24.3l-137.1-6.8
				c-12.8-0.6-22.6-12.4-21.9-26.3l20.4-358c0.8-14.1,11.7-25.2,24.6-24.8L391.5,40.1L391.5,40.1z"/>
			<path class="st6" d="M416,40.2c-4.2-5-9.6-8.6-15.5-10.5c-0.1,0-0.2,0-0.4-0.1c-1.4-0.4-2.8-0.7-4.2-0.9
				c-1.4-0.2-2.6-0.3-3.8-0.4l-42.7-1.1L297.2,26l-42-1.1h-1.5c-11.8,0.3-22.2,7.1-28.4,17.3c-3.4,5.5-5.5,11.9-5.9,18.8l-1.5,26.7
				l-4.3,76.7L212,193l-3.5,61.4l-2.4,43.5l-2.4,43.4l-0.1,1l-1,18l-3.3,58.7c-0.1,1.5-0.1,2.9,0,4.3v0.5
				c0.7,10.7,5.8,20.2,13.3,26.4c5.1,4.1,11.4,6.7,18.3,7l96.7,4.8h0l40.3,2c0.8,0,1.5,0,2.3,0c16.3-0.3,30.2-13.3,33.3-30.2
				c0.4-1.7,0.6-3.4,0.7-5.1l0.2-3.7l1.4-23.9l0.5-9.4l1.4-24.2l0.9-15.6l2.4-42.5l1.6-27.7l0.6-9.5l3.1-53.7l3-52.1l4.2-73.7
				l1.4-25.2C425.3,57.3,422.2,47.7,416,40.2L416,40.2z M225,444.5c-7.6-2.9-13.2-9.9-14.8-18.6c-0.4-2.1-0.6-4.2-0.4-6.4l4.2-72.7
				l0-1.1l5.6-98.1l8.9-155.8l1.7-30.3v0c0-0.9,0.1-1.7,0.2-2.5c0.2-1.6,0.6-3.3,1.1-4.8c1.3-3.9,3.4-7.3,6-10.1
				c1-1.1,2.2-2.1,3.4-3c0.5-0.4,1-0.7,1.5-1c0.1-0.1,0.3-0.2,0.4-0.3c0.4-0.2,0.9-0.5,1.3-0.7c0.9-0.5,1.8-0.9,2.7-1.2
				c0.7-0.2,1.5-0.5,2.2-0.7c0.7-0.2,1.5-0.3,2.2-0.4c0.7-0.1,1.5-0.2,2.3-0.2h1.1l53.3,1.3h0.2l29.6,0.7l53.7,1.3
				c0.8,0,1.6,0.1,2.4,0.2c1.5,0.2,3,0.6,4.4,1.1h0c0.8,0.3,1.6,0.7,2.4,1.1c1.3,0.6,2.4,1.3,3.5,2.2c1.2,0.9,2.3,2,3.3,3.1
				c1,1.1,1.9,2.4,2.7,3.7c0.8,1.3,1.5,2.8,2,4.3c1.3,3.5,2,7.3,1.7,11.3l-1,18.2l-4.4,77.1l-3.1,54.8l-3.1,55l-0.3,6.2l-8.5,150
				c-0.2,3.3-0.9,6.4-2.2,9.2h0c-0.3,0.8-0.7,1.6-1.1,2.4c-0.4,0.7-0.8,1.4-1.2,2c-0.4,0.6-0.8,1.2-1.3,1.8
				c-1.9,2.4-4.3,4.4-6.9,5.9c-0.6,0.4-1.3,0.7-2,1c-0.7,0.3-1.4,0.6-2.1,0.8c-0.7,0.2-1.4,0.4-2.2,0.6c-0.7,0.2-1.5,0.3-2.2,0.4
				c-0.7,0.1-1.5,0.2-2.3,0.2c-0.5,0-1,0-1.5,0l-25.3-1.3h0l-111.8-5.5h-0.1C229.2,445.8,227.1,445.3,225,444.5L225,444.5z"/>
			<path class="st7" d="M424.7,67.5l-5.6,98.9l-10.5-4.1l5.4-95.2c0.8-14.5-9.3-26.6-22.5-27l-136.8-3.4h-1.1
				c-12.4,0.3-22.8,11.1-23.5,24.8l-1.7,30.3l-10.5-4.1l1.5-26.7c1.1-19.8,16.1-35.7,34.2-36.1h1.6l136.8,3.4
				c9.3,0.3,17.8,4.5,24,11.9C422.2,47.7,425.3,57.3,424.7,67.5z"/>
			<path class="st8" d="M297.2,26L297.2,26c-0.4,6.4,4.6,11.9,11,12l29.6,0.7c6.1,0.1,11.2-4.7,11.5-10.8l0-0.7
				C349.4,27.3,297.2,26,297.2,26z"/>
		</g>
		<path class="st2" d="M212,193c-4.1,23.8-13.3,41-11.7,67c0.3,5.6,1.1,11.6,2.6,18.1c0.6,2.4,1.1,5,1.5,7.5c0.7,3.9,1.3,8,1.7,12.2
			c1.4,14.2,1.3,29.4-0.5,44.2c0,0.3-0.1,0.7-0.1,1c-0.7,5.8-1.7,11.6-2.9,17.2c-4.6,21.2-12.8,40.5-24.8,53.8
			c-7.3,8.2-16.1,14.2-26.4,16.8c-11.8,3.1-21.7,6.3-29.9,9.4c-30.1,11.3-38.9,21.9-38.9,21.9l13.3,33.3c-3.9-3.4-7.8-7-11.6-10.6
			c-16.2-15.7-30.3-33.5-41.9-53c11.6-10.4,23.9-21.8,33.4-31.5c8.8-9,15.2-16.4,16.5-20.3c10.1-30.2,10.7-82.9,26.3-111.5
			c14.2-26,39.4-67.1,48.2-108c2-9.2,3.1-19,3.1-29.6c0-2.2,0.7-4.3,1.8-6.2c4.9-8.5,19-13.2,29.6-1.5c5.3,5.8,9.6,15.7,11.6,31.3
			c0.4,3.3,0.7,6.6,0.9,9.6C214.2,175.2,213.4,184.6,212,193L212,193z"/>
		<path class="st3" d="M177.7,162.6l-11.1-1.9c2-9.2,3.1-19,3.1-29.6c0-2.2,0.6-4.3,1.8-6.2C176.1,127.5,182.6,135.7,177.7,162.6
			L177.7,162.6z"/>
		<path class="st2" d="M429.7,289c0,0-2.1,1.6-4.9,4.5c-6,6.1-15.5,18-16.6,33.5c-1.6,22,6,31.9,6,31.9s-5.9,8.1-6.6,20.4
			c-0.8,14.5,3.6,16.7,3.6,16.7s-4.6,3.5-5.8,17.1c-1.5,16.4,7.7,18.4,9.3,18.6c0.2,0,0.2,0,0.2,0h0.2c12.5,0.9,17.5-17.4,19.5-26.3
			c1.2-5.4-0.7-16.6-0.7-16.6s20.3-26.9,5.2-41.3c0,0,13.3-11.8,11.1-39.8c-0.5-7-11-13.8-16.8-16.9c-1.1-0.6-2.9-1.6-3.5-1.9"/>
		<path class="st9" d="M238.2,509.6c-17.8,6.3-33.9,16.2-49,27.8c-2.9,2.3-5.8,4.6-8.6,7c-13.2-4.6-25.8-10.1-37.9-16.6
			c-14.4-7.7-28-16.8-40.5-27l30.5-17.1c0,0,6.7,5,18.1,10.9c5.7,2.9,12.7,6,20.6,8.8C189.6,509.8,213.1,514.2,238.2,509.6
			L238.2,509.6z"/>
		<path class="st1" d="M212,193c-4.1,23.8-13.3,41-11.7,67c0.3,5.6,1.1,11.6,2.6,18.1c0.6,2.4,1.1,5,1.5,7.5
			c-6.3-23.6-12.9-35.6-9-58.9c3.8-23.3,25.4-78.4,5.8-103.3c5.3,5.8,9.6,15.7,11.6,31.3c0.4,3.3,0.7,6.6,0.9,9.6
			C214.2,175.2,213.4,184.6,212,193L212,193z"/>
		<g>
			<path class="st10" d="M193.8,548.6c-4.5-1.3-8.9-2.7-13.3-4.2c-13.2-4.6-25.8-10.1-37.9-16.6c-14.4-7.7-28-16.8-40.5-27
				c-2.2-1.7-4.3-3.5-6.3-5.3c-3.9-3.4-7.8-7-11.6-10.6c-16.2-15.7-30.3-33.5-41.9-53c-2-3.3-3.9-6.6-5.7-10l32.3-26.6
				c2.3,1.7,4.6,3.4,6.8,5.1c2.5,1.9,4.9,3.8,7.4,5.8c13.7,10.8,26.5,22.2,38.3,34.1c10.6,10.6,20.4,21.7,29.4,33.3
				c7.4,9.6,14.3,19.4,20.5,29.7c6.7,10.9,12.7,22.3,17.9,34.1C190.8,541.1,192.4,544.8,193.8,548.6L193.8,548.6z"/>
			<path class="st11" d="M193.8,548.6c-4.5-1.3-8.9-2.7-13.3-4.2c-13.2-4.6-25.8-10.1-37.9-16.6c4.8-12.9,7.1-24.3,8.1-33.2
				c1.3-12.3,0.2-19.9,0.1-20.9c7.4,9.6,14.3,19.4,20.5,29.7c6.7,10.9,12.7,22.3,17.9,34.1C190.8,541.1,192.4,544.8,193.8,548.6
				L193.8,548.6z"/>
		</g>
	</g>
	<g>
		<polygon class="st12" points="275.4,308.4 234,307.3 240.2,189.9 281.6,191 		"/>
		<polygon class="st12" points="329.1,309.8 287.6,308.7 292.2,221.9 333.6,222.9 		"/>
		<polygon class="st12" points="382.7,311.2 341.3,310.1 348.2,178.4 389.6,179.5 		"/>
		<g>
			<polygon class="st13" points="235,287.6 311.7,241.5 365.9,272.5 385.4,260.1 384.7,272.9 365.9,284.8 311.5,253.7 234.3,300.1 
							"/>
		</g>
	</g>
</g>
</svg>
