<svg xmlns="http://www.w3.org/2000/svg" data-name="Layer 11" viewBox="0 0 24 24"><path d="M19 2H5C3.34 2 2 3.34 2 5v14c0 1.66 1.34 3 3 3h14c1.66 0 3-1.34 3-3V5c0-1.66-1.34-3-3-3M8 19H5V9.8h3zM6.44 8.6h-.02c-.98 0-1.62-.73-1.62-1.65 0-.94.66-1.65 1.66-1.65s1.62.71 1.64 1.65c0 .92-.64 1.65-1.66 1.65M19 19h-2.95v-4.92c0-1.24-.43-2.08-1.49-2.08-.82 0-1.3.57-1.51 1.12-.08.19-.1.47-.1.74V19H10s.02-3.71.02-6.43c0-1.37-.01-2.48-.02-2.77h2.95v1.3c.39-.63 1.09-1.52 2.66-1.52 1.94 0 3.39 1.32 3.39 4.14z" style="fill:#00716b"></path></svg>