<svg xmlns="http://www.w3.org/2000/svg" data-name="Layer 11" viewBox="0 0 24 24"><path d="m9.765 12.129-3.352 2.996V9.134zm2.727 1.533a.79.79 0 0 1-1.04-.018l-.698-.632-3.062 2.737h8.631l-3.062-2.737-.769.649Zm4.121-5.413H7.402l4.605 4.116zm.989 6.875V9.133l-3.352 2.995zm4.399-10.125v14c0 1.66-1.34 3-3 3H5c-1.66 0-3-1.34-3-3V5c0-1.66 1.34-3 3-3h14c1.66 0 3 1.34 3 3Zm-3 2.92c0-.51-.41-.92-.92-.92H5.92c-.51 0-.92.41-.92.92v8.16c0 .51.41.92.92.92h12.16c.51 0 .92-.41.92-.92V7.92Z" style="fill:#00716b"></path></svg>