<?xml version="1.0" encoding="UTF-8"?>
<svg id="Laag_1" xmlns="http://www.w3.org/2000/svg" xmlns:xlink="http://www.w3.org/1999/xlink" version="1.1" viewBox="0 0 550 706">
  <!-- Generator: Adobe Illustrator 29.0.0, SVG Export Plug-In . SVG Version: 2.1.0 Build 186)  -->
  <defs>
    <style>
      .st0, .st1, .st2 {
        fill: #05aa96;
      }

      .st3 {
        fill: #948acc;
      }

      .st4 {
        fill: url(#Naamloos_verloop);
      }

      .st4, .st5, .st6, .st7, .st8, .st9, .st10, .st1, .st11, .st12 {
        isolation: isolate;
      }

      .st4, .st5, .st6, .st7, .st8, .st1 {
        opacity: .2;
      }

      .st13 {
        fill: #008378;
      }

      .st14 {
        fill: #79838c;
      }

      .st15 {
        fill: #e7e9eb;
      }

      .st16 {
        fill: #006f68;
      }

      .st5 {
        fill: url(#Naamloos_verloop_5);
      }

      .st6 {
        fill: url(#Naamloos_verloop_2);
      }

      .st7 {
        fill: url(#Naamloos_verloop_8);
      }

      .st8 {
        fill: url(#Naamloos_verloop_3);
      }

      .st9 {
        fill: url(#Naamloos_verloop_6);
        opacity: .6;
      }

      .st17 {
        fill: #00a494;
      }

      .st18 {
        fill: #006359;
      }

      .st19 {
        fill: #ff9480;
      }

      .st20 {
        fill: #a9a2d6;
      }

      .st21 {
        fill: #ffad9d;
      }

      .st22 {
        fill: #ffd200;
      }

      .st23 {
        fill: #9b9b9b;
      }

      .st11 {
        font-size: 49px;
      }

      .st11, .st12 {
        fill: #f9f9f9;
        font-family: Roboto-Bold, Roboto;
        font-weight: 700;
      }

      .st12 {
        font-size: 36.7px;
      }

      .st24 {
        fill: #def5f3;
      }

      .st25 {
        fill: #ffb7ab;
      }

      .st26 {
        fill: #d2cfe9;
      }

      .st27 {
        fill: #d4dbd5;
      }

      .st28 {
        fill: #007569;
      }

      .st2 {
        stroke: #005e5d;
        stroke-miterlimit: 10;
        stroke-width: 7.1px;
      }

      .st29 {
        fill: #009384;
      }

      .st30 {
        fill: url(#Naamloos_verloop_4);
      }

      .st31 {
        fill: url(#Naamloos_verloop_7);
      }

      .st32 {
        fill: #005e5d;
      }

      .st33 {
        display: none;
      }

      .st34 {
        fill: #ffcf1a;
      }
    </style>
    <linearGradient id="Naamloos_verloop" data-name="Naamloos verloop" x1="81.4" y1="-155.1" x2="200.1" y2="-155.1" gradientTransform="translate(0 220)" gradientUnits="userSpaceOnUse">
      <stop offset="0" stop-color="#fff" stop-opacity="0"/>
      <stop offset="0" stop-color="#fff" stop-opacity=".1"/>
      <stop offset="1" stop-color="#fff"/>
    </linearGradient>
    <linearGradient id="Naamloos_verloop_2" data-name="Naamloos verloop 2" x1="425" y1="-155.1" x2="528.6" y2="-155.1" gradientTransform="translate(0 220)" gradientUnits="userSpaceOnUse">
      <stop offset="0" stop-color="#fff" stop-opacity="0"/>
      <stop offset="0" stop-color="#fff" stop-opacity=".1"/>
      <stop offset="1" stop-color="#fff"/>
    </linearGradient>
    <linearGradient id="Naamloos_verloop_3" data-name="Naamloos verloop 3" x1="27" y1="-41.5" x2="100.2" y2="-41.5" gradientTransform="translate(0 220)" gradientUnits="userSpaceOnUse">
      <stop offset="0" stop-color="#fff" stop-opacity="0"/>
      <stop offset="0" stop-color="#fff" stop-opacity=".1"/>
      <stop offset="1" stop-color="#fff"/>
    </linearGradient>
    <linearGradient id="Naamloos_verloop_4" data-name="Naamloos verloop 4" x1="554.3" y1="-122.4" x2="427.8" y2="96.6" gradientTransform="translate(818.9 220) rotate(-180) scale(1 -1)" gradientUnits="userSpaceOnUse">
      <stop offset="0" stop-color="#005e5d" stop-opacity=".3"/>
      <stop offset=".6" stop-color="#009286" stop-opacity=".7"/>
      <stop offset="1" stop-color="#00af9e"/>
    </linearGradient>
    <linearGradient id="Naamloos_verloop_5" data-name="Naamloos verloop 5" x1="220.2" y1="80.7" x2="278.4" y2="80.7" gradientTransform="translate(27.9 220)" gradientUnits="userSpaceOnUse">
      <stop offset="0" stop-color="#fff" stop-opacity="0"/>
      <stop offset="0" stop-color="#fff" stop-opacity=".1"/>
      <stop offset="1" stop-color="#fff"/>
    </linearGradient>
    <linearGradient id="Naamloos_verloop_6" data-name="Naamloos verloop 6" x1="318.2" y1="201.8" x2="291" y2="248.8" gradientTransform="translate(27.9 220)" gradientUnits="userSpaceOnUse">
      <stop offset="0" stop-color="#005e5d"/>
      <stop offset=".7" stop-color="#001d1d" stop-opacity=".3"/>
      <stop offset="1" stop-color="#000" stop-opacity="0"/>
    </linearGradient>
    <linearGradient id="Naamloos_verloop_7" data-name="Naamloos verloop 7" x1="404.5" y1="199.5" x2="404.5" y2="220.2" gradientTransform="translate(0 220)" gradientUnits="userSpaceOnUse">
      <stop offset="0" stop-color="#79838c"/>
      <stop offset=".5" stop-color="#78818a"/>
      <stop offset=".7" stop-color="#737c83"/>
      <stop offset=".8" stop-color="#6b7278"/>
      <stop offset=".9" stop-color="#606367"/>
      <stop offset="1" stop-color="#515151"/>
    </linearGradient>
    <linearGradient id="Naamloos_verloop_8" data-name="Naamloos verloop 8" x1="331.8" y1="-71.6" x2="364.2" y2="-71.6" gradientTransform="translate(0 220)" gradientUnits="userSpaceOnUse">
      <stop offset="0" stop-color="#fff" stop-opacity="0"/>
      <stop offset="0" stop-color="#fff" stop-opacity=".1"/>
      <stop offset="1" stop-color="#fff"/>
    </linearGradient>
  </defs>
  <g id="Layer_1" class="st33">
    <g>
      <path class="st4" d="M181.8,53.4s23.6,2.9,17.2,25.4c0,0-3.2,16.6-23.9,15.2,0,0-27.4,18-63.3,0,0,0-29.2,3.4-30.4-19.6,0,0-.9-18.4,15.8-21,0,0,.9-18.4,23.9-18.4,0,0,44.6-24.9,60.7,18.3h0Z"/>
      <path class="st6" d="M512.6,54.9s20.6,2.5,15,22.1c0,0-2.8,14.5-20.9,13.2,0,0-23.9,15.7-55.2,0,0,0-25.4,3-26.5-17.1,0,0-.8-16,13.7-18.3,0,0,.8-16,20.9-16,0,0,39-21.7,53,16h0Z"/>
      <path class="st8" d="M90.3,167.5s20.7,12.5,2.3,29.8c-3,2.8-6.9,4.3-10.9,4.3h-45.8c-1.3,0-2.6-.5-3.5-1.5-3.6-3.5-10.9-12.8,1.6-19.8,0,0,3-17.4,19.6-13,0,.2,21.2-26.8,36.7.2Z"/>
    </g>
    <g>
      <g>
        <rect class="st16" x="414.5" y="82.7" width="46" height="83.9"/>
        <polygon class="st0" points="185 230 344.7 51.4 504.4 230 504.4 456.1 185 456.1 185 230"/>
        <g>
          <rect class="st27" x="185" y="448.8" width="319.4" height="7.3"/>
          <rect class="st27" x="185" y="420" width="319.4" height="7.3"/>
        </g>
        <polygon class="st30" points="185 230 344.7 51.4 350.3 57.7 504.4 230 504.4 251.2 340.8 68.3 185 242.6 185 230"/>
        <path class="st32" d="M523.4,251.2c3.9-1.5,7-4.9,8.3-9.3L344.7,32.7l-187.1,209.2c1.3,4.4,4.4,7.8,8.3,9.3L344.7,51.4l178.7,199.8h0Z"/>
        <g>
          <g>
            <rect class="st16" x="247.5" y="254" width="58.2" height="116.5"/>
            <path class="st15" d="M239.3,244.8v134.9h74.6v-134.9h-74.6,0ZM305.7,254v53.7h-58.2v-53.7h58.2ZM247.5,370.5v-53.7h58.2v53.7h-58.2Z"/>
          </g>
          <polygon class="st5" points="306.3 254 248.1 254 248.1 347.5 306.3 282.4 306.3 254"/>
        </g>
        <path class="st32" d="M509.2,460.9v-37.8c0-2-1.6-3.6-3.6-3.6H183.8c-2,0-3.6,1.6-3.6,3.6v37.8h329Z"/>
        <polygon class="st9" points="305 460.9 342 419.5 342 460.9 305 460.9"/>
        <rect class="st32" x="360" y="244.9" width="89.1" height="174.7"/>
        <polygon class="st31" points="342.3 440.2 466.8 440.2 466.8 419.5 342.3 419.5 342.3 440.2"/>
        <rect class="st14" x="325.2" y="440.2" width="158.8" height="20.7"/>
        <rect class="st16" x="376.4" y="263.2" width="56.3" height="69"/>
        <rect class="st16" x="376.4" y="341.4" width="56.3" height="69"/>
        <g>
          <rect class="st16" x="330.5" y="128.8" width="32.5" height="37.7"/>
          <path class="st15" d="M371.2,175.7v-56h-48.9v56h48.9ZM363,166.5h-32.5v-37.7h32.5v37.7Z"/>
        </g>
      </g>
      <path class="st32" d="M16.1,475.5h513.1c.6,0,1.1-.5,1.1-1.1v-6.1c0-4.1-3.3-7.4-7.4-7.4H22.4c-4.1,0-7.4,3.3-7.4,7.4v6.1c0,.6.5,1.1,1.1,1.1Z"/>
    </g>
    <polygon class="st7" points="364.1 129.6 331.8 129.6 331.8 167.3 364.1 131.1 364.1 129.6"/>
    <circle class="st22" cx="435.8" cy="335.7" r="8"/>
    <g>
      <g>
        <polygon class="st15" points="261.3 421 49.4 421 49.4 395.1 281.1 395.1 261.3 421"/>
        <rect class="st23" x="88.5" y="421" width="11.5" height="24.8"/>
        <rect class="st23" x="223.3" y="421" width="11.5" height="24.8"/>
        <rect class="st2" x="68" y="445.8" width="191.8" height="110.2"/>
        <polygon class="st15" points="15 368.9 49.4 368.9 32.2 356.3 15 368.9"/>
      </g>
      <g class="st10">
        <g class="st10">
          <text class="st12" transform="translate(143.5 490.9)"><tspan x="0" y="0">TE</tspan></text>
        </g>
      </g>
      <g class="st10">
        <g class="st10">
          <text class="st11" transform="translate(99.9 534.6)"><tspan x="0" y="0">KOOP</tspan></text>
        </g>
      </g>
    </g>
    <path class="st1" d="M286.2,704.7c24.9-134.8,221.1-113.9,221.1-196.9s-23.3-33.7-23.3-33.7h-146.9c24,1.5,98.6,47.6-13.6,81.9-150,44.4-192.3,114.9-204.2,148.7h166.9Z"/>
    <rect class="st15" x="15" y="368.9" width="34.5" height="335.8"/>
  </g>
  <g>
    <path class="st24" d="M511.8,363c0,65.3-26.5,124.4-69.3,167.2-24.6,24.6-54.7,43.8-88.2,55.6-16.3,5.8-33.5,9.8-51.3,11.9-1.6.2-3.2.4-4.8.5-7.5.7-15.1,1.1-22.8,1.1-19.1,0-37.6-2.3-55.4-6.5-6-1.4-12-3.1-17.8-5-32-10.4-61-27.4-85.3-49.5-.4-.4-.8-.7-1.2-1.1-47.1-43.2-76.6-105.2-76.6-174.2s47.1-163.2,117.2-204.2c35-20.5,75.7-32.2,119.1-32.2s42,2.8,61.7,8.1c26.2,7,50.6,18.5,72.3,33.5,61.8,42.6,102.4,113.9,102.4,194.7h0Z"/>
    <g>
      <path class="st20" d="M335,236.9v9.3l-.2,300.8v44.4l-25.8-.7-10.5-.3-16.6-.5-61.9-1.8-17.8-.5c-32-10.4-61-27.4-85.3-49.5-.4-.4-.8-.7-1.2-1.1l.2-128.6.2-153.3v-9l218.8-9.4v.2Z"/>
      <path class="st3" d="M442.6,258.8v271.4c-24.6,24.6-54.7,43.8-88.2,55.6l-19.6,5.7v-44.4l.2-300.8v-9.3l107.6,21.9h0Z"/>
      <path class="st3" d="M339.6,555.2l-4.8,5.6-18.2,21.2-.8,1-6.7,7.8-6,6.9c-1.6.2-3.2.4-4.8.5-7.5.7-15.1,1.1-22.8,1.1-19.1,0-37.6-2.3-55.4-6.5-6-1.4-12-3.1-17.8-5-32-10.4-61-27.4-85.3-49.5l129.7,5.2,6.5.3,61.7,2.5,6.4.3,13.5.5h0l4.8,8.1h0Z"/>
      <g>
        <polygon class="st29" points="321.3 563.3 246.6 561 246.7 436.4 321.3 435.8 321.3 563.3"/>
        <polygon class="st13" points="315 442.6 315 463.8 314.9 563.1 253.2 561.2 253.3 462.9 253.3 442 315 442.6"/>
      </g>
      <g>
        <path class="st28" d="M264.7,472.8c0,.5.4,1,1,1l35.7.4c.5,0,1-.4,1-1v-9.6l-37.7-.6v9.8Z"/>
        <path class="st28" d="M315,442.6l-61.7-.5v20.8l11.4.2v-10.5c0-.5.5-1,1-1l35.7.3c.5,0,1,.5,1,1v10.8l12.5.2v-21.2h0Z"/>
        <path class="st18" d="M301.5,451.9l-35.7-.3c-.5,0-1,.4-1,1v10.5l37.7.6v-10.8c0-.5-.4-1-1-1h0Z"/>
      </g>
      <path class="st17" d="M321.3,396.5v39.4l-11.6,10.8-82.9-.7v-10.8l25.4-37.2c.8-1.1,2-1.8,3.3-1.8l65.8.3h0Z"/>
      <polygon class="st29" points="309.7 446.6 309.7 435.7 321.3 396.5 321.3 445.3 309.7 446.6"/>
      <polygon class="st29" points="226.8 435.1 309.7 435.8 309.7 446.6 226.8 445.9 226.8 435.1"/>
      <path class="st26" d="M191.6,358.4l25.4-.5v-69.5c0-7.1-5.6-12.8-12.6-12.7h0c-7,0-12.7,5.8-12.7,12.8v70h0Z"/>
      <polygon class="st19" points="104.6 239.7 116.2 246.4 335 237 342.5 220.3 104.6 239.7"/>
      <polygon class="st19" points="442.6 258.8 449.5 254.7 342.5 220.3 335 237 442.6 258.8"/>
      <path class="st21" d="M449.5,254.7l-112.3-26h-.2l-232.4,11s21.1-17.4,31.6-34.6c1-1.6,1.9-3.3,2.6-4.9,7.4-15.3,24.4-58.4,30.2-73.4,1.2-3.2,4.2-5.2,7.6-5.5,64.7-5.2,137-12.6,155.7-14.6,1.6-.1,3.2-.1,4.8.1,1.4.2,2.8.6,4.1,1.2l52.1,21.7,2,.8c3.1,1.3,5.4,4,6.3,7.2,4.3,17,18,70.4,20.6,77.1,3.5,8.9,27.3,39.7,27.3,39.7v.2Z"/>
      <path class="st25" d="M393.4,129.8c-4.9,23.6-32.8,24.6-34.3,44.1-.5,6.8-14.1,17.8-14.1,17.8-110.9-28.7-208.8,13.4-208.8,13.4,1-1.6,1.9-3.3,2.6-4.9,7.4-15.3,24.4-58.4,30.2-73.4,1.2-3.2,4.2-5.2,7.6-5.5,64.7-5.2,137-12.6,155.7-14.6,1.6-.1,3.2-.1,4.8.1,1.4.2,2.8.6,4.1,1.2l52.1,21.7h.1Z"/>
      <path class="st20" d="M298.3,590.8v7.4c-7.5.7-15.1,1.1-22.8,1.1-19.1,0-37.6-2.3-55.4-6.5v-5.9l61.9,3.1,16.3.8h0Z"/>
      <polygon class="st20" points="316.6 583 238.8 579.3 238.8 568.7 316.3 572.3 316.6 583"/>
      <path class="st3" d="M442.5,522.2v8c-24.6,24.6-54.7,43.8-88.2,55.6-16.3,5.8-33.5,9.8-51.3,11.9-1.6.2-3.2.4-4.8.5v-7.4l.3-.4,6.7-8,8.6-10.2,7.4-8.9h0l13.5-16.2h0l107.7-24.9h0Z"/>
      <path class="st26" d="M148.2,358.8l25.4-.5v-69.5c.1-7.1-5.6-12.8-12.6-12.7h0c-7,0-12.7,5.8-12.7,12.8v70h0Z"/>
      <path class="st26" d="M278.3,356.7l26.1-.5v-71.4c.1-7.2-5.7-13.1-12.9-13.1h0c-7.2,0-13,5.9-13,13.1v71.8h-.2Z"/>
      <polygon class="st26" points="148.2 421.5 148.2 508.8 218.3 510.6 218.3 421.3 148.2 421.5"/>
      <polygon class="st3" points="335 246.3 335 246.3 116.2 255.3 116.2 246.4 335 237 335 246.3"/>
      <path class="st19" d="M449.5,254.7l-112.3-26v-121.8c1.4.2,2.8.6,4.1,1.2l54.1,22.6c3.1,1.3,5.4,4,6.3,7.2,4.3,17,18,70.4,20.6,77.1,3.5,8.9,27.3,39.7,27.3,39.7h-.1Z"/>
      <ellipse class="st34" cx="268.9" cy="498.6" rx="5.4" ry="4.6" transform="translate(-248.8 728.5) rotate(-85.6)"/>
    </g>
  </g>
</svg>