<?xml version="1.0" encoding="UTF-8"?>
<svg id="PRODUCT_ICONS" data-name="PRODUCT ICONS" xmlns="http://www.w3.org/2000/svg" viewBox="0 0 72 72">
  <defs>
    <style>
      .cls-1 {
        fill: #004c4c;
      }

      .cls-2 {
        fill: #66c7c0;
      }

      .cls-3 {
        fill: #33b5ab;
      }

      .cls-4 {
        fill: #00716b;
      }

      .cls-5 {
        fill: #f3c000;
      }
    </style>
  </defs>
  <rect class="cls-2" x="9" y="17" width="54" height="40" rx="3" ry="3"/>
  <path class="cls-4" d="M47,33.84l-10-3.16-12,12.63-8-5.26-8,4.68v11.27c0,1.66,1.34,3,3,3h48c1.66,0,3-1.34,3-3v-24.12l-16,3.96Z"/>
  <rect class="cls-3" x="25.97" y="17" width="2.05" height="24"/>
  <rect class="cls-3" x="43.97" y="17" width="2.05" height="16"/>
  <rect class="cls-1" x="25.97" y="41" width="2.05" height="16"/>
  <rect class="cls-1" x="43.97" y="33" width="2.05" height="24"/>
  <path class="cls-3" d="M60,17h-14.95c-.03.33-.05.66-.05,1,0,6.63,5.37,12,12,12,2.19,0,4.23-.6,6-1.62v-8.38c0-1.66-1.34-3-3-3Z"/>
  <circle class="cls-5" cx="57" cy="18" r="9"/>
  <path class="cls-1" d="M61,19h-7c-.55,0-1-.45-1-1s.45-1,1-1h7c.55,0,1,.45,1,1s-.45,1-1,1Z"/>
  <path class="cls-1" d="M57.62,22.62c-.26,0-.51-.1-.71-.29-.39-.39-.39-1.02,0-1.41l2.91-2.91-2.91-2.91c-.39-.39-.39-1.02,0-1.41s1.02-.39,1.41,0l3.62,3.62c.39.39.39,1.02,0,1.41l-3.62,3.62c-.2.2-.45.29-.71.29Z"/>
  <polygon class="cls-5" points="63 28.29 47.05 32.24 36.55 28.93 24.77 41.32 17.05 36.24 9 40.95 9 44.51 16.95 39.86 25.23 45.31 37.45 32.44 46.95 35.44 63 31.46 63 28.29"/>
</svg>