<?xml version="1.0" encoding="UTF-8"?>
<svg id="PRODUCT_ICONS" data-name="PRODUCT ICONS" xmlns="http://www.w3.org/2000/svg" viewBox="0 0 72 72">
  <defs>
    <style>
      .cls-1 {
        fill: #00716b;
      }

      .cls-1, .cls-2, .cls-3, .cls-4, .cls-5, .cls-6 {
        stroke-width: 0px;
      }

      .cls-2 {
        fill: #f3c000;
      }

      .cls-3 {
        fill: #39b7ae;
      }

      .cls-4 {
        fill: #33b5ab;
      }

      .cls-5 {
        fill: #004c4c;
      }

      .cls-6 {
        fill: #fff;
      }
    </style>
  </defs>
  <rect class="cls-3" x="9" y="24" width="54" height="30"/>
  <path class="cls-1" d="M63,24v30H25.72c-2.37-4.43-3.72-9.55-3.72-15s1.35-10.57,3.72-15h37.28Z"/>
  <circle class="cls-1" cx="14" cy="49" r="2"/>
  <rect class="cls-2" x="56" y="24" width="3" height="30"/>
  <circle class="cls-4" cx="39" cy="39" r="12"/>
  <path class="cls-6" d="M43.01,44.32c-.14,0-.28.03-.41.09-.78.38-1.66.59-2.59.59-2.22,0-4.15-1.21-5.19-3h4.85c.42,0,.8-.27.94-.66.23-.65-.25-1.34-.94-1.34h-5.57c-.06-.33-.09-.66-.09-1s.03-.67.09-1h7.02c.42,0,.8-.27.94-.66.24-.65-.25-1.34-.94-1.34h-6.3c1.04-1.79,2.97-3,5.19-3,.82,0,1.59.16,2.3.45.14.06.28.09.42.09.41,0,.79-.24.94-.65.18-.5-.06-1.06-.55-1.26-.96-.4-2-.63-3.1-.63-3.36,0-6.23,2.07-7.41,5h-1.59c-.55,0-1,.45-1,1s.45,1,1,1h1.07c-.04.33-.07.66-.07,1s.03.67.07,1h-1.07c-.55,0-1,.45-1,1s.45,1,1,1h1.59c1.19,2.93,4.05,5,7.41,5,1.24,0,2.42-.28,3.46-.79.34-.16.53-.52.53-.89,0-.57-.47-1.01-.99-1.01h0Z"/>
  <rect class="cls-5" x="12" y="27" width="6" height="4" rx="2" ry="2"/>
  <circle class="cls-2" cx="18" cy="14" r="6"/>
  <circle class="cls-2" cx="32" cy="17" r="5"/>
</svg>