<?xml version="1.0" encoding="UTF-8"?>
<svg id="PRODUCT_ICONS" data-name="PRODUCT ICONS" xmlns="http://www.w3.org/2000/svg" viewBox="0 0 72 72">
  <defs>
    <style>
      .cls-1 {
        fill: #004c4c;
      }

      .cls-2 {
        fill: #66c7c0;
      }

      .cls-3 {
        fill: #33b5ab;
      }

      .cls-4 {
        fill: #00716b;
      }
    </style>
  </defs>
  <g>
    <path class="cls-4" d="M21.75,44h7.5c8.69,0,15.75,7.06,15.75,15.75v.25H6v-.25c0-8.69,7.06-15.75,15.75-15.75Z"/>
    <rect class="cls-4" x="21" y="38.68" width="9" height="6.32"/>
    <path class="cls-1" d="M30,41.4s-1.5,2.6-9,2.6v-4h9v1.4Z"/>
    <path class="cls-4" d="M34,28.75v4.2c0,4.66-3.41,8.73-7.93,9.03-4.95.33-9.07-3.71-9.07-8.74v-4.49c0-4.83,3.81-8.75,8.5-8.75h0c4.69,0,8.5,3.92,8.5,8.75Z"/>
  </g>
  <g>
    <path class="cls-2" d="M43,45h8c8.28,0,15,6.72,15,15H28c0-8.28,6.72-15,15-15Z"/>
    <rect class="cls-2" x="43" y="40.95" width="8" height="5.23"/>
    <path class="cls-3" d="M51,42.92s-1.33,2.08-8,2.08v-3.2h8v1.12Z"/>
    <path class="cls-2" d="M54,32.42v3.56c0,3.95-2.81,7.4-6.53,7.66-4.08.28-7.47-3.14-7.47-7.41v-3.81c0-4.1,3.13-7.42,7-7.42h0c3.87,0,7,3.32,7,7.42Z"/>
  </g>
</svg>