<?xml version="1.0" encoding="UTF-8"?>
<svg id="PRODUCT_ICONS" data-name="PRODUCT ICONS" xmlns="http://www.w3.org/2000/svg" viewBox="0 0 72 72">
  <defs>
    <style>
      .cls-1 {
        fill: #66c7c0;
      }

      .cls-2 {
        fill: #33b5ab;
      }

      .cls-3 {
        fill: #00716b;
      }

      .cls-4 {
        fill: #f3c000;
      }
    </style>
  </defs>
  <path class="cls-1" d="M15.34,36.69l15.8,14.8-2.83,2.83-18.63-17.63h0c1.56-1.56,4.09-1.56,5.66,0Z"/>
  <path class="cls-3" d="M9.69,36.69l18.63,17.63-2.83,2.83-15.8-14.8c-1.56-1.56-1.56-4.09,0-5.66h0Z"/>
  <path class="cls-3" d="M28,53h32c0,2.21-1.79,4-4,4h-28v-4h0Z"/>
  <path class="cls-1" d="M28,49h28c2.21,0,4,1.79,4,4H28v-4h0Z"/>
  <path class="cls-4" d="M60,62c-.45,0-.9-.15-1.27-.46l-7.96-6.54h-19.67l-6.96,6.47c-.81.75-2.07.71-2.83-.1-.75-.81-.71-2.07.1-2.83l7.54-7c.37-.34.86-.53,1.36-.53h21.17c.46,0,.91.16,1.27.46l8.51,7c.85.7.98,1.96.27,2.82-.4.48-.97.73-1.55.73Z"/>
  <path class="cls-1" d="M35,7h0c1.1,0,2,.9,2,2v40h-4V9c0-1.1.9-2,2-2Z"/>
  <path class="cls-1" d="M14,32h9s.42-1.19.49-2.39c.68-11.26,5.69-20.07,11.74-20.42h0c-11.93.07-21.79,8.7-23.21,19.89-.17,1.35.62,2.91,1.98,2.92Z"/>
  <path class="cls-3" d="M35.23,9.18c-7.52.36-14.09,10.56-14.23,22.82h14l.23-22.82Z"/>
  <path class="cls-2" d="M37.01,32l-.03,2.16h0c-1.29.5-2.72.48-4-.04h0s.03-2.12.03-2.12h4Z"/>
  <path class="cls-3" d="M56.23,32h-9.23s-.19-1.19-.26-2.39c-.68-11.26-5.69-20.07-11.74-20.42h0c11.93.07,21.79,8.7,23.21,19.89.17,1.35-.62,2.91-1.98,2.92Z"/>
  <path class="cls-1" d="M34.75,9.18c7.52.36,14.09,10.56,14.23,22.82h-13.98s-.25-22.82-.25-22.82Z"/>
</svg>