<?xml version="1.0" encoding="UTF-8"?>
<svg id="PRODUCT_ICONS" data-name="PRODUCT ICONS" xmlns="http://www.w3.org/2000/svg" viewBox="0 0 72 72">
  <defs>
    <style>
      .cls-1, .cls-2, .cls-3, .cls-4, .cls-5, .cls-6, .cls-7 {
        stroke-width: 0px;
      }

      .cls-1, .cls-6, .cls-8 {
        fill: #66c7c0;
      }

      .cls-1, .cls-8 {
        fill-rule: evenodd;
      }

      .cls-2 {
        fill: #00716b;
      }

      .cls-3 {
        fill: #f3c000;
      }

      .cls-4 {
        fill: #33b5ab;
      }

      .cls-5 {
        fill: #004c4c;
      }

      .cls-7 {
        fill: #fff;
      }
    </style>
  </defs>
  <path class="cls-8" d="M64.98,27.59c.12-1.65-.41-3.25-1.5-4.5-.62-.71-1.69-.79-2.4-.17-.71.62-.79,1.69-.17,2.4.49.56.73,1.29.68,2.03-.05.75-.39,1.42-.96,1.91-.47.41-1.03.62-1.61.67-2.69-7.21-9.99-12.39-18.6-12.39-3.69,0-7.51.45-11.07,1.58-3.8,1.21-7.02,3.36-10.37,5.46-2.17,1.36-3.02,2.15-5.61,2.61-1.17.2-2.36.16-3.55.09-.44-.03-.88-.07-1.33-.1-1.7-.12-1.62,1.75-1.62,2.94,0,2.26-.21,4.52-.12,6.79.03.75.12,1.52.4,2.22.45,1.1,3.16,1.24,3.62,2.31.14.34-1.49,1.08-1.3,1.4,2.31,3.94,5.6,6.82,9.5,8.76v8.34h9.38c.8-1.46,1.67-3.22,2.45-5.21,3.8.43,7.79.44,11.6-.2.79,2.06,1.69,3.88,2.51,5.39h9.38v-10.81c.62-.57,1.22-1.18,1.78-1.85,2.54-3.11,4.06-7.09,4.06-11.23,0-.94-.1-1.86-.24-2.77,1.06-.19,2.09-.66,2.97-1.42,1.25-1.09,2.01-2.59,2.12-4.25Z"/>
  <path class="cls-6" d="M58.8,33.35c-1.74,0-3.47-.72-4.69-2.14-1.09-1.25-1.62-2.85-1.5-4.51.07-.94.9-1.64,1.82-1.58.94.07,1.65.88,1.58,1.82-.05.74.19,1.46.68,2.03,1.01,1.17,2.78,1.29,3.94.28.56-.49.9-1.17.96-1.91.05-.74-.19-1.47-.68-2.03-.62-.71-.54-1.79.17-2.4.71-.62,1.79-.54,2.4.17,1.09,1.25,1.62,2.85,1.5,4.5-.12,1.65-.87,3.16-2.12,4.25-1.17,1.02-2.62,1.51-4.06,1.51Z"/>
  <path class="cls-1" d="M32.97,43.9c0,6.67-2.55,12.29-4.6,16.03-5.6,0-9.38,0-9.38,0v-10.84s13.98-5.19,13.98-5.19ZM40.32,43.89c0,6.67,2.55,12.29,4.6,16.03,5.6,0,9.38,0,9.38,0v-10.84s-13.98-5.19-13.98-5.19Z"/>
  <path class="cls-6" d="M58.8,33.35c-1.74,0-3.47-.72-4.69-2.14-1.09-1.25-1.62-2.85-1.5-4.51.07-.94.9-1.64,1.82-1.58.94.07,1.65.88,1.58,1.82-.05.74.19,1.46.68,2.03,1.01,1.17,2.78,1.29,3.94.28.56-.49.9-1.17.96-1.91.05-.74-.19-1.47-.68-2.03-.62-.71-.54-1.79.17-2.4.71-.62,1.79-.54,2.4.17,1.09,1.25,1.62,2.85,1.5,4.5-.12,1.65-.87,3.16-2.12,4.25-1.17,1.02-2.62,1.51-4.06,1.51Z"/>
  <path class="cls-2" d="M58.8,33.35c-1.74,0-3.47-.72-4.69-2.14-1.09-1.25-1.62-2.85-1.5-4.51.07-.94.9-1.64,1.82-1.58.94.07,1.65.88,1.58,1.82-.05.74.19,1.46.68,2.03,1.01,1.17,2.78,1.29,3.94.28.56-.49.9-1.17.96-1.91.05-.74-.19-1.47-.68-2.03-.62-.71-.54-1.79.17-2.4.71-.62,1.79-.54,2.4.17,1.09,1.25,1.62,2.85,1.5,4.5-.12,1.65-.87,3.16-2.12,4.25-1.17,1.02-2.62,1.51-4.06,1.51Z"/>
  <g>
    <path class="cls-4" d="M54.3,49.07l-.77-.29c-3.51,2.38-7.79,3.36-11.86,3.64.55,1.76,1.21,3.38,1.89,4.82,3.62-.39,7.36-1.31,10.74-3.11v-5.07Z"/>
    <path class="cls-4" d="M29.98,56.72c.65-1.44,1.28-3.04,1.79-4.77-1.3-.2-2.38-.41-3.15-.58-2.83-.63-5.38-1.65-7.59-3.04l-2.04.76v3.86c2.54,1.49,5.4,2.6,8.55,3.3.64.14,1.47.31,2.44.48Z"/>
  </g>
  <path class="cls-1" d="M40.42,17.54c-3.69,0-7.51.45-11.07,1.58-3.8,1.21-7.02,3.36-10.37,5.46-2.17,1.36-3.02,2.15-5.61,2.61-1.17.2-2.36.16-3.55.09-.44-.03-.88-.07-1.33-.1-1.7-.12-1.62,1.75-1.62,2.94,0,2.26-.21,4.52-.12,6.79.03.75.12,1.52.4,2.22.45,1.1,3.16,1.24,3.62,2.31.14.34-1.49,1.08-1.3,1.4,3.46,5.92,9.12,9.5,15.78,10.97,10.11,2.23,23.68,2.18,30.82-6.55,2.54-3.11,4.06-7.09,4.06-11.23,0-10.21-8.83-18.48-19.72-18.48Z"/>
  <path class="cls-2" d="M23.86,28.79c-5.28-.61-8.68-3.72-9.12-12.64-.05-1.04.92-1.85,1.94-1.6,3.26.79,9.38,2.82,9.38,6.98v5.34c0,1.17-1.03,2.06-2.2,1.92Z"/>
  <circle class="cls-7" cx="18.1" cy="33.45" r="2.27"/>
  <rect class="cls-5" x="29.46" y="22.09" width="19.31" height="3.41" rx="1.7" ry="1.7"/>
  <path class="cls-3" d="M47.64,19.25c0,2.48-1.06,4.7-2.75,6.25h-11.54c-1.69-1.55-2.75-3.77-2.75-6.25,0-4.7,3.82-8.52,8.52-8.52s8.52,3.82,8.52,8.52Z"/>
</svg>