<?xml version="1.0" encoding="UTF-8"?>
<svg id="PRODUCT_ICONS" data-name="PRODUCT ICONS" xmlns="http://www.w3.org/2000/svg" viewBox="0 0 72 72">
  <defs>
    <style>
      .cls-1 {
        fill: #004c4c;
      }

      .cls-2 {
        fill: #66c7c0;
      }

      .cls-3 {
        fill: #33b5ab;
      }

      .cls-4 {
        fill: #00716b;
      }

      .cls-5 {
        fill: #f3c000;
      }
    </style>
  </defs>
  <path class="cls-3" d="M12.14,21.82h37.86c1.1,0,2,.9,2,2v28.08c0,2.21-1.79,4-4,4H14.14c-1.1,0-2-.9-2-2V21.82h0Z"/>
  <path class="cls-3" d="M14.14,18h13.86c1.1,0,2,.9,2,2v6.85H12.83c-.38,0-.69-.31-.69-.69v-6.16c0-1.1.9-2,2-2Z"/>
  <path class="cls-2" d="M34.26,25.84h22.67c.96,0,1.7.84,1.57,1.79l-3.39,25.72c-.19,1.47-1.45,2.57-2.93,2.57H13.75c-.96,0-1.7-.84-1.57-1.79l3.55-26.91c.1-.79.78-1.38,1.57-1.38h16.96"/>
  <path class="cls-3" d="M56.93,25.84h-.07c-.83,5.42-5.51,9.59-11.16,9.59s-10.33-4.17-11.16-9.59h-4.04c.86,7.63,7.34,13.59,15.2,13.59,4.88,0,9.22-2.3,12.02-5.87l.78-5.93c.13-.95-.61-1.79-1.57-1.79Z"/>
  <path class="cls-4" d="M63.96,48.56c-.59,0-1.18-.26-1.57-.76l-8.43-10.71c-.68-.87-.53-2.13.34-2.81.87-.68,2.13-.53,2.81.34l8.43,10.71c.68.87.53,2.13-.34,2.81-.37.29-.8.43-1.24.43Z"/>
  <path class="cls-1" d="M55.52,32.59l-3.14,2.47,1.53,1.96c1.12-.72,2.15-1.59,3.05-2.57l-1.44-1.86Z"/>
  <path class="cls-5" d="M45.7,37.42c-7.33,0-13.3-5.97-13.3-13.3s5.97-13.3,13.3-13.3,13.3,5.97,13.3,13.3-5.97,13.3-13.3,13.3ZM45.7,14.82c-5.13,0-9.3,4.17-9.3,9.3s4.17,9.3,9.3,9.3,9.3-4.17,9.3-9.3-4.17-9.3-9.3-9.3Z"/>
</svg>