<?xml version="1.0" encoding="UTF-8"?>
<svg id="PRODUCT_ICONS" data-name="PRODUCT ICONS" xmlns="http://www.w3.org/2000/svg" viewBox="0 0 72 72">
  <defs>
    <style>
      .cls-1 {
        fill: #66c7c0;
      }

      .cls-2 {
        fill: #33b5ab;
      }

      .cls-3 {
        fill: #00716b;
      }

      .cls-4 {
        fill: #f3c000;
      }
    </style>
  </defs>
  <path class="cls-1" d="M50.39,55.42c-1.55,2.96-4.59,4.8-7.93,4.8-4.93,0-8.94-4.01-8.94-8.94V12.5c0-1.38,1.12-2.5,2.5-2.5s2.5,1.12,2.5,2.5v38.78c0,2.17,1.77,3.94,3.94,3.94,1.48,0,2.82-.81,3.5-2.12.64-1.22,2.16-1.69,3.37-1.05,1.23.64,1.7,2.15,1.06,3.37Z"/>
  <path class="cls-4" d="M35.95,28.54c-1.38,0-2.5-1.12-2.5-2.5v-14.54c0-1.38,1.12-2.5,2.5-2.5s2.5,1.12,2.5,2.5v14.54c0,1.38-1.12,2.5-2.5,2.5Z"/>
  <path class="cls-1" d="M14.35,35.69h7.3c1.25,0,2.28-.98,2.34-2.23.58-11.75,5.7-21.01,12.02-21.45h0c-12.45.21-22.64,9.33-23.99,21.02-.16,1.41.92,2.65,2.33,2.65Z"/>
  <path class="cls-3" d="M57.28,35.68h-6.61c-1.43,0-2.61-1.1-2.71-2.52-.55-8.29-3.12-19.48-11.96-21.15v-.02c11.7,0,22.5,9.09,23.98,20.67.2,1.61-1.08,3.02-2.7,3.02Z"/>
  <path class="cls-1" d="M36,12c7.85.46,14.12,10.89,14.12,23.69h-14.12V12Z"/>
  <path class="cls-3" d="M36.01,12c-7.98,1.04-14.18,11.13-14.12,23.69h14.12s0-23.69,0-23.69Z"/>
  <path class="cls-2" d="M38.51,35.68v3h0c-1.61.64-3.4.64-5,0h0v-3h5Z"/>
</svg>